<svg width="48.000000" height="48.000000" viewBox="0 0 48 48" fill="none" xmlns="http://www.w3.org/2000/svg" xmlns:xlink="http://www.w3.org/1999/xlink">
	<desc>
			Created with Pixso.
	</desc>
	<defs>
		<clipPath id="clip122_1083">
			<rect id="facebook 1" width="48.000000" height="48.000000" fill="white" fill-opacity="0"/>
		</clipPath>
	</defs>
	<rect id="facebook 1" width="48.000000" height="48.000000" fill="#FFFFFF" fill-opacity="0"/>
	<g clip-path="url(#clip122_1083)">
		<path id="Vector" d="M24 0C37.2554 0 48 10.746 48 24.0001C48 37.2557 37.2554 48 24 48C10.7441 48 0 37.2555 0 24.0001C0 10.746 10.7446 0 24 0Z" fill="#3B5998" fill-opacity="1.000000" fill-rule="nonzero"/>
		<path id="Vector" d="M26.9219 16.5224L30.0151 16.5224L30.0151 11.9534L26.3789 11.9534L26.3789 11.9698C21.9736 12.1259 21.0703 14.6023 20.9907 17.2034L20.9819 17.2034L20.9819 19.4849L17.9819 19.4849L17.9819 23.9593L20.9819 23.9593L20.9819 35.9533L25.5029 35.9533L25.5029 23.9593L29.2065 23.9593L29.9219 19.4849L25.5044 19.4849L25.5044 18.1065C25.5044 17.2274 26.0894 16.5224 26.9219 16.5224Z" fill="#FFFFFF" fill-opacity="1.000000" fill-rule="nonzero"/>
	</g>
</svg>
