<svg width="42.000000" height="42.000000" viewBox="0 0 42 42" fill="none" xmlns="http://www.w3.org/2000/svg" xmlns:xlink="http://www.w3.org/1999/xlink">
	<desc>
			Created with Pixso.
	</desc>
	<defs>
		<clipPath id="clip112_516">
			<rect id="github-icon 1" width="42.000000" height="42.000000" fill="white" fill-opacity="0"/>
		</clipPath>
	</defs>
	<rect id="github-icon 1" width="42.000000" height="42.000000" fill="#FFFFFF" fill-opacity="0"/>
	<g clip-path="url(#clip112_516)">
		<path id="Vector" d="M21 0.875C9.39746 0.875 0 10.115 0 21.511C0 30.6302 6.0166 38.3635 14.3589 41.09C15.4087 41.2843 15.7939 40.6455 15.7939 40.0978C15.7939 39.6078 15.7764 38.3092 15.7676 36.589C9.92578 37.8333 8.69385 33.8206 8.69385 33.8206C7.73828 31.4387 6.35791 30.8018 6.35791 30.8018C4.45557 29.5225 6.50488 29.5487 6.50488 29.5487C8.61328 29.6923 9.72119 31.675 9.72119 31.675C11.5938 34.8302 14.6372 33.9185 15.8374 33.3917C16.0264 32.0565 16.5674 31.1482 17.1675 30.632C12.5039 30.1157 7.60205 28.3413 7.60205 20.4347C7.60205 18.1825 8.41553 16.3416 9.76318 14.8977C9.52686 14.3762 8.81836 12.278 9.94678 9.43604C9.94678 9.43604 11.7056 8.88306 15.7222 11.5518C17.4019 11.0933 19.187 10.8657 20.9722 10.8552C22.7568 10.8657 24.542 11.0933 26.2222 11.5518C30.2119 8.88306 31.9707 9.43604 31.9707 9.43604C33.0996 12.278 32.3906 14.3762 32.1807 14.8977C33.5195 16.3416 34.333 18.1825 34.333 20.4347C34.333 28.3623 29.4243 30.1071 24.752 30.6145C25.4868 31.234 26.1694 32.4993 26.1694 34.433C26.1694 37.1945 26.1431 39.4135 26.1431 40.0837C26.1431 40.6245 26.5107 41.2703 27.5869 41.0637C35.9888 38.3547 42 30.6162 42 21.511C42 10.115 32.5972 0.875 21 0.875Z" fill="#212121" fill-opacity="1.000000" fill-rule="nonzero"/>
	</g>
</svg>
