<svg width="48.000000" height="48.000000" viewBox="0 0 48 48" fill="none" xmlns="http://www.w3.org/2000/svg" xmlns:xlink="http://www.w3.org/1999/xlink">
	<desc>
			Created with Pixso.
	</desc>
	<defs>
		<clipPath id="clip122_1090">
			<rect id="instagram 2" width="48.000000" height="48.000000" fill="white" fill-opacity="0"/>
		</clipPath>
		<linearGradient id="paint_linear_122_1091_0" x1="3.091946" y1="44.934155" x2="44.921246" y2="3.109985" gradientUnits="userSpaceOnUse">
			<stop stop-color="#FFDD55"/>
			<stop offset="0.500000" stop-color="#FF543E"/>
			<stop offset="1.000000" stop-color="#C837AB"/>
		</linearGradient>
	</defs>
	<rect id="instagram 2" width="48.000000" height="48.000000" fill="#FFFFFF" fill-opacity="0"/>
	<g clip-path="url(#clip122_1090)">
		<path id="Vector" d="M3 3.26597C-0.771973 7.18397 0 11.346 0 23.99C0 34.49 -1.83203 45.016 7.75586 47.494C10.75 48.264 37.2778 48.264 40.2681 47.49C44.2598 46.46 47.5078 43.222 47.9521 37.576C48.0137 36.788 48.0137 11.206 47.9497 10.402C47.478 4.38797 43.7759 0.921974 38.8979 0.219971C37.7798 0.0579681 37.5557 0.00997162 31.8198 -3.05176e-05C11.4741 0.00997162 7.01367 -0.896027 3 3.26597Z" fill="url(#paint_linear_122_1091_0)" fill-opacity="1.000000" fill-rule="nonzero"/>
		<path id="Vector" d="M23.9956 6.27809C16.7334 6.27809 9.8374 5.63209 7.20361 12.3921C6.11572 15.1841 6.27344 18.8101 6.27344 24.0021C6.27344 28.5581 6.12744 32.8401 7.20361 35.6101C9.83154 42.3741 16.7837 41.7261 23.9917 41.7261C30.9458 41.7261 38.1157 42.4501 40.7817 35.6101C41.8716 32.7901 41.7114 29.2181 41.7114 24.0021C41.7114 17.0781 42.0938 12.6081 38.7358 9.25209C35.3354 5.85209 30.7378 6.27809 23.9878 6.27809L23.9956 6.27809ZM22.4077 9.47209C37.5557 9.44809 39.4834 7.76409 38.4194 31.1581C38.0415 39.4321 31.7417 38.5241 23.9976 38.5241C9.87744 38.5241 9.47168 38.1201 9.47168 23.9941C9.47168 9.70409 10.5918 9.48009 22.4077 9.46809L22.4077 9.47209ZM33.4556 12.4141C32.2817 12.4141 31.3296 13.3661 31.3296 14.5401C31.3296 15.7141 32.2817 16.6661 33.4556 16.6661C34.6294 16.6661 35.5815 15.7141 35.5815 14.5401C35.5815 13.3661 34.6294 12.4141 33.4556 12.4141ZM23.9956 14.9001C18.9697 14.9001 14.8955 18.9761 14.8955 24.0021C14.8955 29.0281 18.9697 33.1021 23.9956 33.1021C29.0215 33.1021 33.0938 29.0281 33.0938 24.0021C33.0938 18.9761 29.0215 14.9001 23.9956 14.9001ZM23.9956 18.0941C31.8057 18.0941 31.8154 29.9101 23.9956 29.9101C16.1875 29.9101 16.1758 18.0941 23.9956 18.0941Z" fill="#FFFFFF" fill-opacity="1.000000" fill-rule="nonzero"/>
	</g>
</svg>
