<svg width="32.000000" height="32.000000" viewBox="0 0 32 32" fill="none" xmlns="http://www.w3.org/2000/svg" xmlns:xlink="http://www.w3.org/1999/xlink">
	<desc>
			Created with Pixso.
	</desc>
	<defs>
		<clipPath id="clip112_518">
			<rect id="linkedin (2) 1" width="32.000000" height="32.000000" fill="white" fill-opacity="0"/>
		</clipPath>
	</defs>
	<rect id="linkedin (2) 1" width="32.000000" height="32.000000" fill="#FFFFFF" fill-opacity="0"/>
	<g clip-path="url(#clip112_518)">
		<path id="XMLID_802_" d="M7.44873 10.2947L1.0249 10.2947C0.739746 10.2947 0.508789 10.5258 0.508789 10.8108L0.508789 31.4485C0.508789 31.7336 0.739746 31.9646 1.0249 31.9646L7.44873 31.9646C7.73389 31.9646 7.96533 31.7336 7.96533 31.4485L7.96533 10.8108C7.96533 10.5258 7.73389 10.2947 7.44873 10.2947Z" fill="#000000" fill-opacity="1.000000" fill-rule="nonzero"/>
		<path id="XMLID_803_" d="M4.23926 0.0351562C1.90186 0.0351562 0 1.93469 0 4.26953C0 6.60547 1.90186 8.50574 4.23926 8.50574C6.57471 8.50574 8.47461 6.60535 8.47461 4.26953C8.47461 1.93469 6.57471 0.0351562 4.23926 0.0351562Z" fill="#000000" fill-opacity="1.000000" fill-rule="nonzero"/>
		<path id="XMLID_804_" d="M23.7886 9.78174C21.2085 9.78174 19.3013 10.8909 18.1445 12.1511L18.1445 10.8108C18.1445 10.5258 17.9136 10.2947 17.6284 10.2947L11.4761 10.2947C11.1909 10.2947 10.96 10.5258 10.96 10.8108L10.96 31.4485C10.96 31.7336 11.1909 31.9646 11.4761 31.9646L17.8862 31.9646C18.1714 31.9646 18.4023 31.7336 18.4023 31.4485L18.4023 21.2377C18.4023 17.7968 19.3369 16.4563 21.7354 16.4563C24.3477 16.4563 24.5552 18.6052 24.5552 21.4147L24.5552 31.4486C24.5552 31.7338 24.7861 31.9647 25.0713 31.9647L31.4839 31.9647C31.769 31.9647 32 31.7338 32 31.4486L32 20.1284C32 15.0121 31.0244 9.78174 23.7886 9.78174Z" fill="#000000" fill-opacity="1.000000" fill-rule="nonzero"/>
	</g>
</svg>
