<svg width="48.000000" height="48.000000" viewBox="0 0 48 48" fill="none" xmlns="http://www.w3.org/2000/svg" xmlns:xlink="http://www.w3.org/1999/xlink">
	<desc>
			Created with Pixso.
	</desc>
	<defs>
		<clipPath id="clip122_1087">
			<rect id="telegram (1) 1" width="48.000000" height="48.000000" fill="white" fill-opacity="0"/>
		</clipPath>
	</defs>
	<rect id="telegram (1) 1" width="48.000000" height="48.000000" fill="#FFFFFF" fill-opacity="0"/>
	<g clip-path="url(#clip122_1087)">
		<path id="Vector" d="M48 24C48 37.2548 37.2549 48 24 48C10.7451 48 0 37.2548 0 24C0 10.7452 10.7451 0 24 0C37.2549 0 48 10.7452 48 24Z" fill="#039BE5" fill-opacity="1.000000" fill-rule="evenodd"/>
		<path id="Vector" d="M10.9814 23.4799L34.1216 14.5579C35.1953 14.1699 36.1338 14.8199 35.7856 16.4439L35.7876 16.4419L31.8477 35.0039C31.5557 36.3199 30.7734 36.6399 29.6797 36.0199L23.6797 31.5979L20.7856 34.3859C20.4653 34.7059 20.1953 34.9759 19.5757 34.9759L20.0015 28.8699L31.1216 18.8239C31.6055 18.3979 31.0137 18.1579 30.3755 18.5819L16.6338 27.2339L10.7095 25.3859C9.42334 24.9779 9.39551 24.0999 10.9814 23.4799Z" fill="#FFFFFF" fill-opacity="1.000000" fill-rule="nonzero"/>
	</g>
</svg>
