<svg width="48.000000" height="48.000000" viewBox="0 0 48 48" fill="none" xmlns="http://www.w3.org/2000/svg" xmlns:xlink="http://www.w3.org/1999/xlink">
	<desc>
			Created with Pixso.
	</desc>
	<defs>
		<clipPath id="clip122_1078">
			<rect id="vk (2) 1" width="48.000000" height="48.000000" fill="white" fill-opacity="0"/>
		</clipPath>
	</defs>
	<rect id="vk (2) 1" width="48.000000" height="48.000000" fill="#FFFFFF" fill-opacity="0"/>
	<g clip-path="url(#clip122_1078)">
		<path id="XMLID_11_" d="M48 24C48 37.2548 37.2549 48 24 48C10.7451 48 0 37.2548 0 24C0 10.7452 10.7451 0 24 0C37.2549 0 48 10.7452 48 24Z" fill="#4D76A1" fill-opacity="1.000000" fill-rule="evenodd"/>
		<path id="Vector" d="M23.0933 34.5262L24.9771 34.5262C24.9771 34.5262 25.5459 34.4637 25.8364 34.1506C26.104 33.8631 26.0952 33.3232 26.0952 33.3232C26.0952 33.3232 26.0586 30.7956 27.2314 30.4234C28.3882 30.0567 29.873 32.8662 31.4468 33.9465C32.6372 34.7641 33.5415 34.5848 33.5415 34.5848L37.75 34.5262C37.75 34.5262 39.9517 34.3906 38.9077 32.6596C38.8223 32.518 38.2998 31.3791 35.7788 29.0389C33.1396 26.5897 33.4932 26.9858 36.6719 22.7491C38.6079 20.1689 39.3818 18.5937 39.1401 17.919C38.9097 17.2764 37.4858 17.4462 37.4858 17.4462L32.7471 17.4757C32.7471 17.4757 32.396 17.4278 32.1353 17.5836C31.8809 17.7363 31.7168 18.0922 31.7168 18.0922C31.7168 18.0922 30.9668 20.0889 29.9668 21.7869C27.8564 25.3699 27.0132 25.559 26.668 25.3366C25.8662 24.818 26.0664 23.2535 26.0664 22.142C26.0664 18.6698 26.5928 17.2221 25.0405 16.8473C24.5259 16.7228 24.1465 16.6406 22.8291 16.6274C21.1387 16.6098 19.7075 16.6325 18.8975 17.0295C18.3584 17.2935 17.9424 17.8818 18.1958 17.9156C18.5088 17.9575 19.2183 18.1068 19.5942 18.6189C20.0796 19.2794 20.0625 20.7631 20.0625 20.7631C20.0625 20.7631 20.3418 24.8506 19.4111 25.3584C18.7725 25.7066 17.896 24.9956 16.0151 21.745C15.0513 20.0799 14.3232 18.2394 14.3232 18.2394C14.3232 18.2394 14.1831 17.8954 13.9326 17.7115C13.6289 17.4886 13.2046 17.4176 13.2046 17.4176L8.70166 17.4471C8.70166 17.4471 8.02588 17.4659 7.77783 17.7598C7.55713 18.0212 7.76025 18.562 7.76025 18.562C7.76025 18.562 11.2856 26.8096 15.2769 30.9659C18.937 34.7765 23.0933 34.5262 23.0933 34.5262Z" fill="#FFFFFF" fill-opacity="1.000000" fill-rule="evenodd"/>
	</g>
</svg>
