<svg width="48.000000" height="48.000000" viewBox="0 0 48 48" fill="none" xmlns="http://www.w3.org/2000/svg" xmlns:xlink="http://www.w3.org/1999/xlink">
	<desc>
			Created with Pixso.
	</desc>
	<defs>
		<clipPath id="clip122_1097">
			<rect id="whatsapp (1) 1" width="48.000000" height="48.000000" fill="white" fill-opacity="0"/>
		</clipPath>
	</defs>
	<rect id="whatsapp (1) 1" width="48.000000" height="48.000000" fill="#FFFFFF" fill-opacity="0"/>
	<g clip-path="url(#clip122_1097)">
		<path id="Vector" d="M23.9873 0.0125885C10.7402 0.0153961 0.00341797 10.7565 0.00634766 24.0035C0.00732422 28.5905 1.32373 33.081 3.79883 36.9428L0.0673828 46.6251C-0.131348 47.14 0.125 47.7186 0.639648 47.9173C0.754883 47.9617 0.877441 47.9845 1.00049 47.9843C1.11523 47.9849 1.229 47.9653 1.33643 47.9263L11.3306 44.3584C22.5752 51.3616 37.3677 47.9233 44.3711 36.6787C51.374 25.4342 47.9355 10.6416 36.6914 3.63847C32.8794 1.26443 28.478 0.00817871 23.9873 0.0125885Z" fill="#55CD6C" fill-opacity="1.000000" fill-rule="nonzero"/>
		<path id="Vector" d="M35.4224 28.0979C35.4224 28.0979 32.9741 26.8986 31.4409 26.0991C29.7061 25.2057 27.667 26.8787 26.7075 27.8301C25.2144 27.2565 23.8506 26.3908 22.6963 25.2836C21.5889 24.1292 20.7231 22.7654 20.1494 21.272C21.1011 20.3106 22.77 18.2738 21.8804 16.5388C21.0908 15.0037 19.8818 12.5572 19.8818 12.5552C19.7119 12.2185 19.3672 12.0059 18.9902 12.0055L16.9917 12.0055C14.0806 12.5083 11.9639 15.0481 11.9946 18.0019C11.9946 21.1401 15.75 27.1685 18.2827 29.703C20.8154 32.2374 26.8438 35.9913 29.9839 35.9913C32.9375 36.0217 35.4775 33.9051 35.9805 30.9943L35.9805 28.9955C35.9805 28.6143 35.7642 28.2663 35.4224 28.0979Z" fill="#FAFAFA" fill-opacity="1.000000" fill-rule="nonzero"/>
	</g>
</svg>
